<svg id="visual" viewBox="0 0 1800 600" width="1800" height="600" xmlns="http://www.w3.org/2000/svg" xmlns:xlink="http://www.w3.org/1999/xlink" version="1.1"><rect x="0" y="0" width="1800" height="600" fill="#FFFFFF"></rect><defs><linearGradient id="grad1_0" x1="66.7%" y1="0%" x2="100%" y2="100%"><stop offset="-10%" stop-color="#7c3aed" stop-opacity="1"></stop><stop offset="110%" stop-color="#7c3aed" stop-opacity="1"></stop></linearGradient></defs><defs><linearGradient id="grad1_1" x1="66.7%" y1="0%" x2="100%" y2="100%"><stop offset="-10%" stop-color="#7c3aed" stop-opacity="1"></stop><stop offset="110%" stop-color="#9458f1" stop-opacity="1"></stop></linearGradient></defs><defs><linearGradient id="grad1_2" x1="66.7%" y1="0%" x2="100%" y2="100%"><stop offset="-10%" stop-color="#aa74f4" stop-opacity="1"></stop><stop offset="110%" stop-color="#9458f1" stop-opacity="1"></stop></linearGradient></defs><defs><linearGradient id="grad1_3" x1="66.7%" y1="0%" x2="100%" y2="100%"><stop offset="-10%" stop-color="#aa74f4" stop-opacity="1"></stop><stop offset="110%" stop-color="#bd90f7" stop-opacity="1"></stop></linearGradient></defs><defs><linearGradient id="grad1_4" x1="66.7%" y1="0%" x2="100%" y2="100%"><stop offset="-10%" stop-color="#cfabf9" stop-opacity="1"></stop><stop offset="110%" stop-color="#bd90f7" stop-opacity="1"></stop></linearGradient></defs><defs><linearGradient id="grad1_5" x1="66.7%" y1="0%" x2="100%" y2="100%"><stop offset="-10%" stop-color="#cfabf9" stop-opacity="1"></stop><stop offset="110%" stop-color="#e0c7fc" stop-opacity="1"></stop></linearGradient></defs><defs><linearGradient id="grad1_6" x1="66.7%" y1="0%" x2="100%" y2="100%"><stop offset="-10%" stop-color="#f0e3fe" stop-opacity="1"></stop><stop offset="110%" stop-color="#e0c7fc" stop-opacity="1"></stop></linearGradient></defs><defs><linearGradient id="grad1_7" x1="66.7%" y1="0%" x2="100%" y2="100%"><stop offset="-10%" stop-color="#f0e3fe" stop-opacity="1"></stop><stop offset="110%" stop-color="#ffffff" stop-opacity="1"></stop></linearGradient></defs><defs><linearGradient id="grad2_0" x1="0%" y1="0%" x2="33.3%" y2="100%"><stop offset="-10%" stop-color="#7c3aed" stop-opacity="1"></stop><stop offset="110%" stop-color="#7c3aed" stop-opacity="1"></stop></linearGradient></defs><defs><linearGradient id="grad2_1" x1="0%" y1="0%" x2="33.3%" y2="100%"><stop offset="-10%" stop-color="#9458f1" stop-opacity="1"></stop><stop offset="110%" stop-color="#7c3aed" stop-opacity="1"></stop></linearGradient></defs><defs><linearGradient id="grad2_2" x1="0%" y1="0%" x2="33.3%" y2="100%"><stop offset="-10%" stop-color="#9458f1" stop-opacity="1"></stop><stop offset="110%" stop-color="#aa74f4" stop-opacity="1"></stop></linearGradient></defs><defs><linearGradient id="grad2_3" x1="0%" y1="0%" x2="33.3%" y2="100%"><stop offset="-10%" stop-color="#bd90f7" stop-opacity="1"></stop><stop offset="110%" stop-color="#aa74f4" stop-opacity="1"></stop></linearGradient></defs><defs><linearGradient id="grad2_4" x1="0%" y1="0%" x2="33.3%" y2="100%"><stop offset="-10%" stop-color="#bd90f7" stop-opacity="1"></stop><stop offset="110%" stop-color="#cfabf9" stop-opacity="1"></stop></linearGradient></defs><defs><linearGradient id="grad2_5" x1="0%" y1="0%" x2="33.3%" y2="100%"><stop offset="-10%" stop-color="#e0c7fc" stop-opacity="1"></stop><stop offset="110%" stop-color="#cfabf9" stop-opacity="1"></stop></linearGradient></defs><defs><linearGradient id="grad2_6" x1="0%" y1="0%" x2="33.3%" y2="100%"><stop offset="-10%" stop-color="#e0c7fc" stop-opacity="1"></stop><stop offset="110%" stop-color="#f0e3fe" stop-opacity="1"></stop></linearGradient></defs><defs><linearGradient id="grad2_7" x1="0%" y1="0%" x2="33.3%" y2="100%"><stop offset="-10%" stop-color="#ffffff" stop-opacity="1"></stop><stop offset="110%" stop-color="#f0e3fe" stop-opacity="1"></stop></linearGradient></defs><g transform="translate(1800, 0)"><path d="M0 600C-97.9 573.2 -195.8 546.3 -288.5 499.7C-381.2 453.1 -468.6 386.6 -519.6 300C-570.7 213.4 -585.3 106.7 -600 0L0 0Z" fill="#f8f1fe"></path><path d="M0 525C-85.7 501.5 -171.4 478.1 -252.4 437.2C-333.5 396.4 -410 338.3 -454.7 262.5C-499.3 186.7 -512.2 93.4 -525 0L0 0Z" fill="#e8d5fd"></path><path d="M0 450C-73.4 429.9 -146.9 409.8 -216.4 374.8C-285.9 339.8 -351.4 289.9 -389.7 225C-428 160.1 -439 80 -450 0L0 0Z" fill="#d8b9fb"></path><path d="M0 375C-61.2 358.2 -122.4 341.5 -180.3 312.3C-238.2 283.2 -292.9 241.6 -324.8 187.5C-356.7 133.4 -365.8 66.7 -375 0L0 0Z" fill="#c79ef8"></path><path d="M0 300C-49 286.6 -97.9 273.2 -144.2 249.8C-190.6 226.5 -234.3 193.3 -259.8 150C-285.3 106.7 -292.7 53.4 -300 0L0 0Z" fill="#b482f5"></path><path d="M0 225C-36.7 214.9 -73.4 204.9 -108.2 187.4C-142.9 169.9 -175.7 145 -194.9 112.5C-214 80 -219.5 40 -225 0L0 0Z" fill="#9f67f2"></path><path d="M0 150C-24.5 143.3 -49 136.6 -72.1 124.9C-95.3 113.3 -117.1 96.6 -129.9 75C-142.7 53.4 -146.3 26.7 -150 0L0 0Z" fill="#894aef"></path><path d="M0 75C-12.2 71.6 -24.5 68.3 -36.1 62.5C-47.6 56.6 -58.6 48.3 -65 37.5C-71.3 26.7 -73.2 13.3 -75 0L0 0Z" fill="#7c3aed"></path></g><g transform="translate(0, 600)"><path d="M0 -600C105.3 -584.5 210.6 -569.1 300 -519.6C389.4 -470.2 462.7 -386.8 510.1 -294.5C557.4 -202.2 578.7 -101.1 600 0L0 0Z" fill="#f8f1fe"></path><path d="M0 -525C92.2 -511.5 184.3 -497.9 262.5 -454.7C340.7 -411.4 404.9 -338.4 446.3 -257.7C487.7 -177 506.4 -88.5 525 0L0 0Z" fill="#e8d5fd"></path><path d="M0 -450C79 -438.4 158 -426.8 225 -389.7C292 -352.6 347.1 -290.1 382.6 -220.9C418.1 -151.7 434 -75.8 450 0L0 0Z" fill="#d8b9fb"></path><path d="M0 -375C65.8 -365.3 131.7 -355.7 187.5 -324.8C243.3 -293.9 289.2 -241.7 318.8 -184.1C348.4 -126.4 361.7 -63.2 375 0L0 0Z" fill="#c79ef8"></path><path d="M0 -300C52.7 -292.3 105.3 -284.5 150 -259.8C194.7 -235.1 231.4 -193.4 255 -147.3C278.7 -101.1 289.4 -50.6 300 0L0 0Z" fill="#b482f5"></path><path d="M0 -225C39.5 -219.2 79 -213.4 112.5 -194.9C146 -176.3 173.5 -145 191.3 -110.4C209 -75.8 217 -37.9 225 0L0 0Z" fill="#9f67f2"></path><path d="M0 -150C26.3 -146.1 52.7 -142.3 75 -129.9C97.3 -117.5 115.7 -96.7 127.5 -73.6C139.4 -50.6 144.7 -25.3 150 0L0 0Z" fill="#894aef"></path><path d="M0 -75C13.2 -73.1 26.3 -71.1 37.5 -65C48.7 -58.8 57.8 -48.3 63.8 -36.8C69.7 -25.3 72.3 -12.6 75 0L0 0Z" fill="#7c3aed"></path></g></svg>